name rise44.8762peak52.3436fall86.788.mot
datacolumns 19
datarows 36
range 21.52159100000000 21.57991200000000
endheader
time	ground_force1_vx	ground_force1_vy	ground_force1_vz	ground_force1_px	ground_force1_py	ground_force1_pz	ground_force2_vx	ground_force2_vy	ground_force2_vz	ground_force2_px	ground_force2_py	ground_force2_pz	ground_torque1_x	ground_torque1_y	ground_torque1_z	ground_torque2_x	ground_torque2_y	ground_torque2_z	
21.52159100000000	65.93946400000000	786.78021000000001	61.15662900000000	0.29539200000000	0.00000000000000	0.13400400000000	0.15114900000000	3.55315600000000	0.49120700000000	0.00000000000000	0.00000000000000	0.00000000000000	0.00000000000000	18.07061100000000	0.00000000000000	0.00000000000000	-0.03981100000000	0.00000000000000	
21.52325000000000	65.24254900000000	790.55420300000003	61.27480600000000	0.29464000000000	0.00000000000000	0.13392400000000	0.00000000000000	0.00000000000000	0.00000000000000	0.00000000000000	0.00000000000000	0.00000000000000	0.00000000000000	18.18802500000000	0.00000000000000	0.00000000000000	0.00000000000000	0.00000000000000	
21.52491500000000	64.53439299999999	794.12201900000002	61.39475500000000	0.29389500000000	0.00000000000000	0.13384600000000	0.00000000000000	0.00000000000000	0.00000000000000	0.00000000000000	0.00000000000000	0.00000000000000	0.00000000000000	18.30952500000000	0.00000000000000	0.00000000000000	0.00000000000000	0.00000000000000	
21.52658600000000	63.81611300000000	797.48030600000004	61.51654000000000	0.29315800000000	0.00000000000000	0.13376900000000	0.00000000000000	0.00000000000000	0.00000000000000	0.00000000000000	0.00000000000000	0.00000000000000	0.00000000000000	18.43493000000000	0.00000000000000	0.00000000000000	0.00000000000000	0.00000000000000	
21.52825200000000	63.08877600000000	800.62606900000003	61.64010700000000	0.29242500000000	0.00000000000000	0.13369400000000	0.00000000000000	0.00000000000000	0.00000000000000	0.00000000000000	0.00000000000000	0.00000000000000	0.00000000000000	18.56399900000000	0.00000000000000	0.00000000000000	0.00000000000000	0.00000000000000	
21.52992000000000	62.35339000000000	803.55669200000000	61.76529100000000	0.29169600000000	0.00000000000000	0.13362000000000	0.00000000000000	0.00000000000000	0.00000000000000	0.00000000000000	0.00000000000000	0.00000000000000	0.00000000000000	18.69643500000000	0.00000000000000	0.00000000000000	0.00000000000000	0.00000000000000	
21.53159500000000	61.61091300000000	806.26994600000000	61.89181700000000	0.29097000000000	0.00000000000000	0.13354800000000	0.00000000000000	0.00000000000000	0.00000000000000	0.00000000000000	0.00000000000000	0.00000000000000	0.00000000000000	18.83188800000000	0.00000000000000	0.00000000000000	0.00000000000000	0.00000000000000	
21.53324700000000	60.86225000000000	808.76400500000000	62.01931000000000	0.29024500000000	0.00000000000000	0.13347800000000	0.00000000000000	0.00000000000000	0.00000000000000	0.00000000000000	0.00000000000000	0.00000000000000	0.00000000000000	18.96995700000000	0.00000000000000	0.00000000000000	0.00000000000000	0.00000000000000	
21.53491300000000	60.10825500000000	811.03745800000002	62.14729400000000	0.28951800000000	0.00000000000000	0.13341000000000	0.00000000000000	0.00000000000000	0.00000000000000	0.00000000000000	0.00000000000000	0.00000000000000	0.00000000000000	19.11019600000000	0.00000000000000	0.00000000000000	0.00000000000000	0.00000000000000	
21.53657900000000	59.34973500000000	813.08931600000005	62.27520500000000	0.28879000000000	0.00000000000000	0.13334300000000	0.00000000000000	0.00000000000000	0.00000000000000	0.00000000000000	0.00000000000000	0.00000000000000	0.00000000000000	19.25211300000000	0.00000000000000	0.00000000000000	0.00000000000000	0.00000000000000	
21.53825400000000	58.58744700000000	814.91902300000004	62.40239400000000	0.28805800000000	0.00000000000000	0.13327800000000	0.00000000000000	0.00000000000000	0.00000000000000	0.00000000000000	0.00000000000000	0.00000000000000	0.00000000000000	19.39518000000000	0.00000000000000	0.00000000000000	0.00000000000000	0.00000000000000	
21.53991700000000	57.82210500000000	816.52645900000005	62.52813800000000	0.28732000000000	0.00000000000000	0.13321400000000	0.00000000000000	0.00000000000000	0.00000000000000	0.00000000000000	0.00000000000000	0.00000000000000	0.00000000000000	19.53883200000000	0.00000000000000	0.00000000000000	0.00000000000000	0.00000000000000	
21.54159400000000	57.05437900000000	817.91194700000005	62.65164300000000	0.28657600000000	0.00000000000000	0.13315200000000	0.00000000000000	0.00000000000000	0.00000000000000	0.00000000000000	0.00000000000000	0.00000000000000	0.00000000000000	19.68247500000000	0.00000000000000	0.00000000000000	0.00000000000000	0.00000000000000	
21.54325600000000	56.28490100000000	819.07625599999994	62.77205900000000	0.28582400000000	0.00000000000000	0.13309200000000	0.00000000000000	0.00000000000000	0.00000000000000	0.00000000000000	0.00000000000000	0.00000000000000	0.00000000000000	19.82548900000000	0.00000000000000	0.00000000000000	0.00000000000000	0.00000000000000	
21.54491700000000	55.51426200000000	820.02059899999995	62.88848100000000	0.28506200000000	0.00000000000000	0.13303300000000	0.00000000000000	0.00000000000000	0.00000000000000	0.00000000000000	0.00000000000000	0.00000000000000	0.00000000000000	19.96723300000000	0.00000000000000	0.00000000000000	0.00000000000000	0.00000000000000	
21.54658500000000	54.74302100000000	820.74663799999996	62.99996400000000	0.28428800000000	0.00000000000000	0.13297500000000	0.00000000000000	0.00000000000000	0.00000000000000	0.00000000000000	0.00000000000000	0.00000000000000	0.00000000000000	20.10704900000000	0.00000000000000	0.00000000000000	0.00000000000000	0.00000000000000	
21.54825000000000	53.97170300000000	821.25647400000003	63.10553000000000	0.28350300000000	0.00000000000000	0.13291900000000	0.00000000000000	0.00000000000000	0.00000000000000	0.00000000000000	0.00000000000000	0.00000000000000	0.00000000000000	20.24426900000000	0.00000000000000	0.00000000000000	0.00000000000000	0.00000000000000	
21.54991400000000	53.20080500000000	821.55264999999997	63.20417600000000	0.28270300000000	0.00000000000000	0.13286400000000	0.00000000000000	0.00000000000000	0.00000000000000	0.00000000000000	0.00000000000000	0.00000000000000	0.00000000000000	20.37821700000000	0.00000000000000	0.00000000000000	0.00000000000000	0.00000000000000	
21.55159200000000	52.43079600000000	821.63814100000002	63.29488300000000	0.28188900000000	0.00000000000000	0.13280900000000	0.00000000000000	0.00000000000000	0.00000000000000	0.00000000000000	0.00000000000000	0.00000000000000	0.00000000000000	20.50821900000000	0.00000000000000	0.00000000000000	0.00000000000000	0.00000000000000	
21.55325300000000	51.66212300000000	821.51634799999999	63.37663000000000	0.28105800000000	0.00000000000000	0.13275600000000	0.00000000000000	0.00000000000000	0.00000000000000	0.00000000000000	0.00000000000000	0.00000000000000	0.00000000000000	20.63360100000000	0.00000000000000	0.00000000000000	0.00000000000000	0.00000000000000	
21.55491500000000	50.89521100000000	821.19108800000004	63.44839400000000	0.28021000000000	0.00000000000000	0.13270400000000	0.00000000000000	0.00000000000000	0.00000000000000	0.00000000000000	0.00000000000000	0.00000000000000	0.00000000000000	20.75370000000000	0.00000000000000	0.00000000000000	0.00000000000000	0.00000000000000	
21.55658800000000	50.13046600000000	820.66658299999995	63.50916800000000	0.27934400000000	0.00000000000000	0.13265300000000	0.00000000000000	0.00000000000000	0.00000000000000	0.00000000000000	0.00000000000000	0.00000000000000	0.00000000000000	20.86786500000000	0.00000000000000	0.00000000000000	0.00000000000000	0.00000000000000	
21.55825000000000	49.36828200000000	819.94744800000001	63.55796500000000	0.27845900000000	0.00000000000000	0.13260300000000	0.00000000000000	0.00000000000000	0.00000000000000	0.00000000000000	0.00000000000000	0.00000000000000	0.00000000000000	20.97546400000000	0.00000000000000	0.00000000000000	0.00000000000000	0.00000000000000	
21.55992200000000	48.60903700000000	819.03867800000000	63.59382400000000	0.27755300000000	0.00000000000000	0.13255300000000	0.00000000000000	0.00000000000000	0.00000000000000	0.00000000000000	0.00000000000000	0.00000000000000	0.00000000000000	21.07588800000000	0.00000000000000	0.00000000000000	0.00000000000000	0.00000000000000	
21.56158200000000	47.85309800000000	817.94563300000004	63.61582400000000	0.27662700000000	0.00000000000000	0.13250400000000	0.00000000000000	0.00000000000000	0.00000000000000	0.00000000000000	0.00000000000000	0.00000000000000	0.00000000000000	21.16855500000000	0.00000000000000	0.00000000000000	0.00000000000000	0.00000000000000	
21.56324500000000	47.10082700000000	816.67401800000005	63.62308700000000	0.27567900000000	0.00000000000000	0.13245500000000	0.00000000000000	0.00000000000000	0.00000000000000	0.00000000000000	0.00000000000000	0.00000000000000	0.00000000000000	21.25291100000000	0.00000000000000	0.00000000000000	0.00000000000000	0.00000000000000	
21.56491200000000	46.35257800000000	815.22987100000000	63.61478700000000	0.27471000000000	0.00000000000000	0.13240600000000	0.00000000000000	0.00000000000000	0.00000000000000	0.00000000000000	0.00000000000000	0.00000000000000	0.00000000000000	21.32844200000000	0.00000000000000	0.00000000000000	0.00000000000000	0.00000000000000	
21.56658000000000	45.60869900000000	813.61953800000003	63.59015700000000	0.27371800000000	0.00000000000000	0.13235800000000	0.00000000000000	0.00000000000000	0.00000000000000	0.00000000000000	0.00000000000000	0.00000000000000	0.00000000000000	21.39466700000000	0.00000000000000	0.00000000000000	0.00000000000000	0.00000000000000	
21.56824800000000	44.86954000000000	811.84965899999997	63.54849300000000	0.27270400000000	0.00000000000000	0.13230900000000	0.00000000000000	0.00000000000000	0.00000000000000	0.00000000000000	0.00000000000000	0.00000000000000	0.00000000000000	21.45115100000000	0.00000000000000	0.00000000000000	0.00000000000000	0.00000000000000	
21.56991400000000	44.13544700000000	809.92714300000000	63.48916100000000	0.27166700000000	0.00000000000000	0.13226000000000	0.00000000000000	0.00000000000000	0.00000000000000	0.00000000000000	0.00000000000000	0.00000000000000	0.00000000000000	21.49750100000000	0.00000000000000	0.00000000000000	0.00000000000000	0.00000000000000	
21.57159600000000	43.40676600000000	807.85914600000001	63.41160400000000	0.27060800000000	0.00000000000000	0.13221200000000	0.00000000000000	0.00000000000000	0.00000000000000	0.00000000000000	0.00000000000000	0.00000000000000	0.00000000000000	21.53337100000000	0.00000000000000	0.00000000000000	0.00000000000000	0.00000000000000	
21.57324600000000	42.68384700000000	805.65305400000000	63.31534200000000	0.26952600000000	0.00000000000000	0.13216300000000	0.00000000000000	0.00000000000000	0.00000000000000	0.00000000000000	0.00000000000000	0.00000000000000	0.00000000000000	21.55846400000000	0.00000000000000	0.00000000000000	0.00000000000000	0.00000000000000	
21.57492000000000	41.96703900000000	803.31645500000002	63.19997800000000	0.26842200000000	0.00000000000000	0.13211300000000	0.00000000000000	0.00000000000000	0.00000000000000	0.00000000000000	0.00000000000000	0.00000000000000	0.00000000000000	21.57253400000000	0.00000000000000	0.00000000000000	0.00000000000000	0.00000000000000	
21.57658600000000	41.25669700000000	800.85711400000002	63.06520400000000	0.26729700000000	0.00000000000000	0.13206300000000	0.00000000000000	0.00000000000000	0.00000000000000	0.00000000000000	0.00000000000000	0.00000000000000	0.00000000000000	21.57538900000000	0.00000000000000	0.00000000000000	0.00000000000000	0.00000000000000	
21.57825000000000	40.55317800000000	798.28295600000001	62.91079800000000	0.26615000000000	0.00000000000000	0.13201200000000	0.00000000000000	0.00000000000000	0.00000000000000	0.00000000000000	0.00000000000000	0.00000000000000	0.00000000000000	21.56688700000000	0.00000000000000	0.00000000000000	0.00000000000000	0.00000000000000	
21.57991200000000	39.85684100000000	795.60203700000000	62.73663000000000	0.26498300000000	0.00000000000000	0.13196000000000	0.00000000000000	0.00000000000000	0.00000000000000	0.00000000000000	0.00000000000000	0.00000000000000	0.00000000000000	21.54694100000000	0.00000000000000	0.00000000000000	0.00000000000000	0.00000000000000	
